<svg width="16" height="16" viewBox="0 0 16 16" xmlns="http://www.w3.org/2000/svg">
<path d="M8 0C3.58998 0 0 3.58998 0 8C0 12.41 3.58998 16 8 16C12.41 16 16 12.41 16 8C16 3.58998 12.41 0 8 0ZM8 1.3913C11.6581 1.3913 14.6087 4.34191 14.6087 8C14.6087 11.6581 11.6581 14.6087 8 14.6087C4.34191 14.6087 1.3913 11.6581 1.3913 8C1.3913 4.34191 4.34191 1.3913 8 1.3913ZM8 2.78261C7.61579 2.78261 7.30435 3.09405 7.30435 3.47826V3.8913C6.84574 3.98056 6.42584 4.16274 6.0761 4.44563C5.55558 4.8666 5.21739 5.53357 5.21739 6.26087C5.21739 7.0528 5.68637 7.68358 6.20654 8C6.72668 8.31638 7.27207 8.45682 7.73913 8.6413C8.37798 8.89515 9.38706 9.11725 9.3913 9.73913C9.3913 10.0655 9.27242 10.2713 9.04348 10.4565C8.81454 10.6417 8.4529 10.7826 8 10.7826C7.2847 10.7826 6.73649 10.3326 6.51089 9.95652C6.32306 9.64348 5.86734 9.52956 5.55437 9.71739C5.24129 9.90518 5.12741 10.3609 5.3152 10.6739C5.69318 11.3039 6.3928 11.8813 7.30435 12.087V12.5217C7.30435 12.9059 7.61579 13.2174 8 13.2174C8.38421 13.2174 8.69565 12.9059 8.69565 12.5217V12.1087C9.15447 12.0162 9.57395 11.8265 9.9239 11.5435C10.4444 11.1225 10.7826 10.4664 10.7826 9.73913C10.7826 8.94717 10.3136 8.30553 9.79346 7.98911C9.27332 7.67269 8.72793 7.53228 8.26087 7.34783C7.62678 7.09482 6.61287 6.87061 6.6087 6.26087C6.6087 5.9345 6.72758 5.71777 6.95652 5.53259C7.18546 5.3474 7.5471 5.21739 8 5.21739C8.7153 5.21739 9.26344 5.65652 9.48911 6.03259C9.6769 6.3456 10.1326 6.45954 10.4456 6.27172C10.7586 6.08389 10.8726 5.6282 10.6848 5.3152C10.3068 4.68525 9.6072 4.11593 8.69565 3.91304V3.47826C8.69565 3.09405 8.38421 2.78261 8 2.78261Z" />
</svg>
