<svg width="15" height="15" viewBox="0 0 15 15" xmlns="http://www.w3.org/2000/svg">
<path d="M4.77 7.58008H1.85C0.83 7.58008 0 8.41008 0 9.43008V12.3501C0 13.3701 0.83 14.2001 1.85 14.2001H4.77C5.79 14.2001 6.62 13.3701 6.62 12.3501V9.43008C6.62 8.41008 5.79 7.58008 4.77 7.58008ZM1.37 9.43008C1.37 9.15008 1.57 8.95008 1.85 8.95008H4.77C5.05 8.95008 5.25 9.15008 5.25 9.43008V12.3501C5.25 12.6301 5.05 12.8301 4.77 12.8301H1.85C1.57 12.8301 1.37 12.6301 1.37 12.3501V9.43008Z" />
<path d="M4.77 0H1.85C0.83 0 0 0.83 0 1.85V4.77C0 5.79 0.83 6.62 1.85 6.62H4.77C5.79 6.62 6.62 5.79 6.62 4.77V1.85C6.62 0.83 5.79 0 4.77 0ZM1.37 1.85C1.37 1.57 1.57 1.37 1.85 1.37H4.77C5.05 1.37 5.25 1.57 5.25 1.85V4.77C5.25 5.05 5.04 5.26 4.77 5.26H1.85C1.58 5.26 1.37 5.05 1.37 4.77V1.85Z" />
<path d="M12.3501 7.58008H9.43008C8.41008 7.58008 7.58008 8.41008 7.58008 9.43008V12.3501C7.58008 13.3701 8.41008 14.2001 9.43008 14.2001H12.3501C13.3701 14.2001 14.2001 13.3701 14.2001 12.3501V9.43008C14.2001 8.41008 13.3701 7.58008 12.3501 7.58008ZM8.95008 9.43008C8.95008 9.15008 9.15008 8.95008 9.43008 8.95008H12.3501C12.6301 8.95008 12.8301 9.15008 12.8301 9.43008V12.3501C12.8301 12.6301 12.6301 12.8301 12.3501 12.8301H9.43008C9.15008 12.8301 8.95008 12.6301 8.95008 12.3501V9.43008Z" />
<path d="M12.3501 0H9.43008C8.41008 0 7.58008 0.83 7.58008 1.85V4.77C7.58008 5.79 8.41008 6.62 9.43008 6.62H12.3501C13.3701 6.62 14.2001 5.79 14.2001 4.77V1.85C14.2001 0.83 13.3701 0 12.3501 0ZM8.95008 1.85C8.95008 1.57 9.15008 1.37 9.43008 1.37H12.3501C12.6301 1.37 12.8301 1.57 12.8301 1.85V4.77C12.8301 5.05 12.6201 5.26 12.3501 5.26H9.43008C9.16008 5.26 8.95008 5.05 8.95008 4.77V1.85Z" />
</svg>
