<svg width="18" height="14" viewBox="0 0 18 14" xmlns="http://www.w3.org/2000/svg">
<path d="M13.7823 0.108022C13.5983 -0.0090614 13.3666 -0.0325425 13.1618 0.0452989L4.17859 3.43108H1.75786C0.788478 3.43108 0 4.17411 0 5.08762V6.97479C0 7.84906 0.722942 8.45989 1.75786 8.45989H2.27327L2.91976 12.7248C2.96652 13.0316 3.24948 13.2632 3.57819 13.2632H5.76271C5.95181 13.2632 6.13272 13.187 6.2597 13.0541C6.38565 12.921 6.44606 12.7431 6.4249 12.5659L6.01769 9.15307L13.1618 11.846C13.369 11.9232 13.6011 11.8981 13.7827 11.783C13.9653 11.6659 14.0745 11.4719 14.0745 11.2638V0.627501C14.0742 0.419388 13.9653 0.225106 13.7823 0.108022ZM5.01827 12.0088H4.15538L3.61778 8.45989H4.17859L4.61584 8.62458L5.01827 12.0088ZM1.3312 5.08762C1.3312 4.866 1.52268 4.68555 1.75786 4.68555H3.64099V7.2051H1.75786C1.3312 7.2051 1.3312 7.03173 1.3312 6.97447V5.08762ZM12.743 1.55388V10.3374L5.50023 7.60718L5.49033 7.60299C5.46268 7.59077 5.43162 7.57694 5.39476 7.56729L4.97185 7.40807V4.48355L12.743 1.55388Z" />
<path d="M15.5138 4.68491C15.6657 4.68491 15.8094 4.63763 15.9295 4.54821L17.7505 3.17537C18.0369 2.95889 18.0833 2.56325 17.8539 2.29273C17.6246 2.02479 17.2051 1.98105 16.918 2.19527L15.0973 3.56779C14.811 3.78427 14.7645 4.17991 14.9939 4.4501C15.1216 4.59935 15.311 4.68491 15.5138 4.68491Z" />
<path d="M17.9958 9.82157C17.976 9.65495 17.8889 9.50538 17.75 9.40052L15.9297 8.028C15.6443 7.81346 15.2248 7.8572 14.9938 8.12579C14.8825 8.25638 14.8323 8.42043 14.8518 8.58704C14.8716 8.75366 14.9586 8.90323 15.0975 9.0081L16.9185 10.3809C17.0387 10.4704 17.1824 10.5176 17.3343 10.5176C17.5374 10.5176 17.7268 10.4321 17.8541 10.2825C17.9651 10.1522 18.0156 9.98851 17.9958 9.82157Z" />
<path d="M15.5137 6.91536H17.3341C17.701 6.91536 17.9997 6.63391 17.9997 6.28812C17.9997 5.94234 17.701 5.66089 17.3341 5.66089H15.5137C15.1468 5.66089 14.8481 5.94234 14.8481 6.28812C14.8481 6.63391 15.1468 6.91536 15.5137 6.91536Z" />
</svg>
