<svg width="14" height="13" viewBox="0 0 14 13" xmlns="http://www.w3.org/2000/svg">
<path d="M0 11.5385C0 11.2646 0.0821086 10.9969 0.235943 10.7692C0.389777 10.5415 0.608427 10.364 0.864243 10.2592C1.12006 10.1544 1.40155 10.127 1.67313 10.1805C1.9447 10.2339 2.19416 10.3657 2.38995 10.5594C2.58574 10.753 2.71908 10.9997 2.7731 11.2683C2.82712 11.5369 2.79939 11.8153 2.69343 12.0683C2.58747 12.3213 2.40803 12.5376 2.1778 12.6897C1.94757 12.8419 1.67689 12.9231 1.4 12.9231C1.0287 12.9231 0.672601 12.7772 0.41005 12.5175C0.1475 12.2579 0 11.9057 0 11.5385ZM1.4 2.76923C1.67689 2.76923 1.94757 2.68802 2.1778 2.53588C2.40803 2.38374 2.58747 2.16749 2.69343 1.91449C2.79939 1.66148 2.82712 1.38308 2.7731 1.11449C2.71908 0.845902 2.58574 0.599187 2.38995 0.405545C2.19416 0.211903 1.9447 0.0800313 1.67313 0.0266056C1.40155 -0.0268201 1.12006 0.000599924 0.864243 0.105398C0.608427 0.210196 0.389777 0.387666 0.235943 0.615365C0.0821086 0.843064 0 1.11076 0 1.38462C0 1.75184 0.1475 2.10402 0.41005 2.36369C0.672601 2.62335 1.0287 2.76923 1.4 2.76923ZM1.4 7.84615C1.67689 7.84615 1.94757 7.76495 2.1778 7.6128C2.40803 7.46066 2.58747 7.24441 2.69343 6.99141C2.79939 6.7384 2.82712 6.46 2.7731 6.19141C2.71908 5.92282 2.58574 5.67611 2.38995 5.48247C2.19416 5.28883 1.9447 5.15695 1.67313 5.10353C1.40155 5.0501 1.12006 5.07752 0.864243 5.18232C0.608427 5.28712 0.389777 5.46459 0.235943 5.69229C0.0821086 5.91999 0 6.18769 0 6.46154C0 6.82876 0.1475 7.18094 0.41005 7.44061C0.672601 7.70027 1.0287 7.84615 1.4 7.84615ZM6.06667 2.30769H13.0667C13.3142 2.30769 13.5516 2.21044 13.7266 2.03733C13.9017 1.86422 14 1.62943 14 1.38462C14 1.1398 13.9017 0.905012 13.7266 0.731902C13.5516 0.558792 13.3142 0.461539 13.0667 0.461539H6.06667C5.81913 0.461539 5.58173 0.558792 5.4067 0.731902C5.23167 0.905012 5.13333 1.1398 5.13333 1.38462C5.13333 1.62943 5.23167 1.86422 5.4067 2.03733C5.58173 2.21044 5.81913 2.30769 6.06667 2.30769ZM6.06667 7.38461H13.0667C13.3142 7.38461 13.5516 7.28736 13.7266 7.11425C13.9017 6.94114 14 6.70635 14 6.46154C14 6.21672 13.9017 5.98193 13.7266 5.80882C13.5516 5.63571 13.3142 5.53846 13.0667 5.53846H6.06667C5.81913 5.53846 5.58173 5.63571 5.4067 5.80882C5.23167 5.98193 5.13333 6.21672 5.13333 6.46154C5.13333 6.70635 5.23167 6.94114 5.4067 7.11425C5.58173 7.28736 5.81913 7.38461 6.06667 7.38461ZM6.06667 12.4615H13.0667C13.3142 12.4615 13.5516 12.3643 13.7266 12.1912C13.9017 12.0181 14 11.7833 14 11.5385C14 11.2936 13.9017 11.0589 13.7266 10.8857C13.5516 10.7126 13.3142 10.6154 13.0667 10.6154H6.06667C5.81913 10.6154 5.58173 10.7126 5.4067 10.8857C5.23167 11.0589 5.13333 11.2936 5.13333 11.5385C5.13333 11.7833 5.23167 12.0181 5.4067 12.1912C5.58173 12.3643 5.81913 12.4615 6.06667 12.4615Z" />
</svg>
