<svg width="16" height="16" viewBox="0 0 16 16" xmlns="http://www.w3.org/2000/svg">
<path d="M15.9973 3.92197L15.9977 3.91701C16.0096 3.7571 15.9749 3.59617 15.9047 3.48677C15.8824 3.45219 15.8574 3.41829 15.8306 3.38611L15.8295 3.38491C15.8177 3.37018 15.8054 3.35615 15.7932 3.34313L15.789 3.33868L15.7854 3.33389L15.7802 3.32738L15.7787 3.32533C15.7525 3.29965 15.7232 3.27517 15.6916 3.2524L15.69 3.2512C15.685 3.2476 15.6801 3.24401 15.6749 3.24041L15.6729 3.23904L15.672 3.23836L15.6707 3.2375C15.62 3.20223 15.5667 3.17536 15.5125 3.15789L15.5108 3.15738L15.509 3.15669C15.5061 3.15567 15.5032 3.15464 15.5003 3.15361C15.4981 3.15293 15.4955 3.15224 15.4933 3.15139C15.4798 3.14694 15.4686 3.14334 15.4577 3.14026L15.4517 3.13855L15.446 3.13632C15.3255 3.08838 15.2028 3.0401 15.0843 2.99337C14.9655 2.94663 14.8427 2.89835 14.7219 2.85041C14.1516 2.62494 13.5616 2.39176 12.9828 2.16388C12.6323 2.02521 12.2759 1.88448 11.9311 1.74854C11.5865 1.61261 11.2302 1.47222 10.8801 1.33355C10.5779 1.21456 10.2704 1.09301 9.97303 0.975389C9.67617 0.858115 9.3692 0.736903 9.06737 0.617916C8.97509 0.58145 8.88179 0.543614 8.79156 0.506977C8.59759 0.428223 8.39711 0.346901 8.19903 0.274996L8.198 0.274653C8.15366 0.258047 8.10436 0.25 8.04735 0.25C8.00763 0.25 7.96277 0.253938 7.9061 0.262155L7.90473 0.262327C7.85543 0.268832 7.83026 0.271229 7.81673 0.272428C7.81348 0.273626 7.80954 0.274996 7.80475 0.276708C7.77633 0.287151 7.74397 0.299991 7.7111 0.313859L7.7099 0.314373L7.70888 0.314715C7.5601 0.373951 7.40705 0.4349 7.25622 0.493109C6.98332 0.600967 6.71008 0.708654 6.43684 0.816513C6.16326 0.924371 5.88968 1.03223 5.61644 1.14009C5.26821 1.27791 4.9193 1.41572 4.57039 1.55354C4.22165 1.69136 3.87291 1.82918 3.52451 1.967C2.84501 2.23476 2.22731 2.4789 1.63614 2.71345C1.42128 2.79785 1.20334 2.88414 0.992591 2.96769C0.864018 3.01853 0.735787 3.06938 0.607556 3.12006C0.596428 3.12485 0.585984 3.12896 0.576055 3.13273L0.569378 3.13512L0.562358 3.13683C0.49422 3.15361 0.428135 3.18015 0.36616 3.21593C0.141542 3.34759 0.00149802 3.59138 0.00149802 3.85178V10.8643C0.00149802 10.973 0.00115562 11.0834 0.000813213 11.1901C-4.28008e-05 11.4025 -0.000727612 11.6224 0.00149802 11.8372V11.8521C0.00149802 11.9831 0.035225 12.1079 0.101652 12.2231C0.165168 12.3315 0.251968 12.4188 0.359483 12.4832L0.594202 12.5864L1.07699 12.7987L1.07939 12.7997C1.64761 13.0502 2.23518 13.3092 2.8147 13.564C3.16327 13.7182 3.51783 13.8744 3.86075 14.0254C4.20384 14.1766 4.55857 14.3329 4.90697 14.4869C5.04873 14.5494 5.19048 14.6119 5.33207 14.6744C5.78781 14.8752 6.25896 15.0831 6.72309 15.2863C6.86998 15.3515 7.0191 15.4173 7.16343 15.4808C7.30792 15.5443 7.45721 15.61 7.60376 15.6751L7.60547 15.676C7.60907 15.6773 7.61437 15.6795 7.62054 15.6826L7.62653 15.6857L7.63218 15.6893C7.68166 15.7213 7.73267 15.7434 7.78849 15.7569L7.79191 15.7578L7.79533 15.7588C7.85697 15.7775 7.91603 15.7871 7.97099 15.7871C7.97801 15.7871 7.98503 15.7869 7.99188 15.7866L7.99547 15.7864L8.00095 15.786L8.00626 15.7864C8.01345 15.7866 8.02064 15.7867 8.02783 15.7867C8.0821 15.7867 8.13654 15.7782 8.18979 15.7612L8.19201 15.7605L8.19424 15.7598C8.21906 15.753 8.24594 15.7436 8.27402 15.7318L8.27607 15.7309L8.27813 15.7302C8.31699 15.7153 8.35431 15.6975 8.38872 15.677L8.39506 15.6732L8.40191 15.6703L8.56695 15.5977L9.10743 15.3599L9.10966 15.3591C9.67805 15.1084 10.2656 14.8494 10.8453 14.5946C11.1935 14.4407 11.5481 14.2844 11.8912 14.1332C12.2341 13.9822 12.5888 13.8261 12.9371 13.672C13.0792 13.6094 13.2211 13.5469 13.3629 13.4842C13.8186 13.2834 14.2897 13.0755 14.7539 12.8723C14.8408 12.8341 14.9295 12.796 15.0153 12.759C15.1766 12.6895 15.3433 12.6174 15.5049 12.5436L15.5104 12.541L15.5161 12.5392C15.5669 12.5219 15.6145 12.4996 15.6577 12.4732L15.6607 12.4714L15.664 12.4697C15.8018 12.3966 15.9312 12.192 15.9723 12.0444C15.9845 11.9999 15.9924 11.9504 15.9953 11.8978V11.8968C15.9959 11.8882 15.9963 11.8787 15.9965 11.8679L15.9966 11.866C15.9966 11.8633 15.9968 11.8605 15.9968 11.8578C15.997 11.8554 15.997 11.853 15.997 11.8504V4.83791C15.997 4.7316 15.9973 4.62528 15.9977 4.51896C15.9983 4.32465 15.999 4.12348 15.9973 3.92694V3.92197ZM6.74723 2.26335L6.88008 2.21097C7.01739 2.15687 7.15469 2.10259 7.292 2.04866C7.39814 2.00655 7.50669 1.9646 7.6118 1.9242C7.72634 1.88003 7.84464 1.83432 7.96037 1.78809L8.00454 1.77046L8.04889 1.78792L8.14151 1.82439C8.27231 1.87592 8.40773 1.92916 8.54092 1.98207C8.66796 2.0324 8.7955 2.08256 8.92305 2.1329C9.36578 2.30752 9.82375 2.48814 10.2735 2.66705L11.1341 3.00655L12.3687 3.49379C12.6113 3.58967 12.8539 3.68554 13.0963 3.78142L13.3634 3.88688L13.1006 4.00244C12.8725 4.10294 12.6443 4.20343 12.4158 4.30393C12.2788 4.36436 12.1415 4.42497 12.0044 4.4854L11.8585 4.54961L11.8118 4.57032L11.7645 4.5508L11.6582 4.50698C11.5269 4.4527 11.3956 4.3986 11.2639 4.34433C10.9751 4.22552 10.6866 4.10687 10.3981 3.98806C10.1088 3.8689 9.81947 3.74957 9.52962 3.63041C9.17951 3.4866 8.82991 3.34279 8.48015 3.19898C8.13055 3.05517 7.78078 2.91136 7.43067 2.76755C7.23362 2.68674 7.03639 2.60542 6.83917 2.5241L6.74552 2.48558L6.47057 2.37241L6.74723 2.26335ZM7.26221 13.9276L7.09409 13.8537C6.72172 13.6895 6.32162 13.5133 5.91981 13.3366C5.57124 13.1824 5.21651 13.0262 4.87359 12.8752C4.5305 12.7241 4.17594 12.5678 3.82737 12.4137C3.68493 12.3508 3.54231 12.288 3.39987 12.2252C2.94499 12.0247 2.47469 11.8172 2.01125 11.6143C1.89671 11.5642 1.78047 11.5121 1.66799 11.4618C1.62638 11.4431 1.58478 11.4246 1.54318 11.406L1.47213 11.3743V4.97488L1.64042 5.04901L2.12784 5.26404L2.83028 5.57409L2.83388 5.57563C3.52126 5.87815 4.23192 6.19093 4.93111 6.5003L4.93642 6.5027C5.52724 6.76275 6.13809 7.03172 6.74055 7.29811C6.8907 7.36385 7.04324 7.43113 7.19082 7.49602L7.26221 7.52752V13.9276ZM8.50702 6.02624C8.41971 6.06442 8.33 6.10328 8.24389 6.14043C8.1766 6.16953 8.10915 6.19847 8.04204 6.22774L7.99393 6.2488L7.94582 6.22757L7.80253 6.16457L7.65906 6.10157L7.65101 6.09797C7.08467 5.84819 6.49899 5.59018 5.92152 5.33629C5.57295 5.18203 5.21822 5.02589 4.8753 4.87489C4.53221 4.72372 4.17765 4.56741 3.82908 4.41333C3.68886 4.35152 3.54848 4.28972 3.40809 4.22774C3.23792 4.15276 3.06774 4.07777 2.89774 4.00278L2.63528 3.88722L2.90184 3.78159L3.03179 3.73023C3.14718 3.68469 3.26257 3.63897 3.37796 3.59326L3.9229 3.37823L4.46749 3.1632L4.51252 3.14557L4.5572 3.16388L4.6928 3.21987C4.82188 3.27311 4.95097 3.32636 5.08057 3.37977C5.3699 3.49876 5.65872 3.61775 5.94771 3.73673C6.23653 3.85572 6.52552 3.9747 6.81468 4.09369C7.16531 4.23767 7.51542 4.38166 7.8657 4.52564C8.21478 4.66928 8.56404 4.81292 8.91363 4.95639C9.14287 5.05072 9.37228 5.14505 9.60152 5.23956L9.69979 5.28013L9.95968 5.38713L9.70253 5.50047C9.32058 5.66893 8.91363 5.84819 8.50702 6.02624ZM14.5246 10.8626C14.5246 10.9726 14.5243 11.0829 14.5239 11.193L14.5236 11.2985L14.5233 11.3763L14.452 11.4077L14.1535 11.539C13.5849 11.7896 12.997 12.0488 12.4158 12.3043C12.0675 12.4582 11.7128 12.6145 11.3697 12.7657C11.0268 12.9167 10.6722 13.0728 10.3238 13.2269L10.0924 13.3289C9.70236 13.5008 9.29935 13.6785 8.90267 13.8528L8.73455 13.9266V8.03634C8.73455 7.92642 8.73524 7.81446 8.73575 7.70643L8.73627 7.60576L8.73661 7.52786L8.80783 7.49653L8.83882 7.48284C8.87237 7.46811 8.90576 7.45339 8.93948 7.4385C9.21272 7.3178 9.49076 7.19539 9.75972 7.07726C10.0285 6.95895 10.3067 6.83671 10.5796 6.71602C10.6441 6.6876 10.7084 6.65935 10.7727 6.63093L10.8982 6.57563L11.0663 6.5015V7.58744C11.0663 7.77508 11.1489 7.97488 11.2817 8.10927C11.4101 8.23767 11.6085 8.3243 11.7748 8.3243C11.7823 8.3243 11.7897 8.32413 11.7969 8.32379C11.9247 8.3178 12.1625 8.28236 12.3207 8.11201C12.4652 7.95467 12.5387 7.77799 12.5387 7.58744V5.85264L12.6102 5.82131L12.6387 5.80881L12.6702 5.79477C12.9907 5.65318 13.3113 5.51211 13.6318 5.37087C13.8734 5.26438 14.1149 5.15806 14.3565 5.0514L14.5246 4.97727V10.8626Z" />
</svg>
