<svg width="16" height="12" viewBox="0 0 16 12" xmlns="http://www.w3.org/2000/svg">
<path d="M14.5304 0C13.7219 0 13.0634 0.646204 13.0634 1.43961C13.0634 1.75648 13.1702 2.04839 13.3456 2.28791L10.6989 6.02292C10.6938 6.02292 10.6887 6.02292 10.6836 6.02292C10.3989 6.02292 10.1319 6.10526 9.90561 6.24498L7.54616 4.83281C7.54871 4.79788 7.55125 4.76295 7.55125 4.72552C7.55125 3.93211 6.89274 3.28591 6.08422 3.28591C5.2757 3.28591 4.61719 3.93211 4.61719 4.72552C4.61719 4.93261 4.66296 5.12722 4.74178 5.30436L1.73653 8.8747C1.65009 8.85973 1.55856 8.84975 1.46703 8.84975C0.658509 8.84975 0 9.49596 0 10.2894C0 11.0828 0.658509 11.729 1.46703 11.729C2.27554 11.729 2.93405 11.0828 2.93405 10.2894C2.93405 10.0548 2.87558 9.83527 2.77388 9.63817L5.73081 6.12023C5.84268 6.14767 5.95964 6.16264 6.07914 6.16264C6.37661 6.16264 6.6512 6.07532 6.88257 5.92562L9.21913 7.32531C9.21405 7.37022 9.2115 7.41513 9.2115 7.46004C9.2115 8.25345 9.87002 8.89965 10.6785 8.89965C11.487 8.89965 12.1456 8.25345 12.1456 7.46004C12.1456 7.13319 12.0337 6.83379 11.8481 6.59427L14.4923 2.87923C14.505 2.87923 14.5177 2.88172 14.5304 2.88172C15.3389 2.88172 16 2.23552 16 1.44211C16 0.648699 15.3389 0 14.5304 0Z" />
</svg>
